# Blender v2.79 (sub 0) OBJ File: ''
# www.blender.org
mtllib asztal2.mtl
o Stütze_2
v 0.050000 0.510656 0.900000
v 0.050000 0.610656 0.900000
v -0.050000 0.610656 0.900000
v -0.050000 0.510656 0.900000
v 0.050000 0.510657 -0.900000
v 0.050000 0.610657 -0.900000
v -0.050000 0.510657 -0.900000
v -0.050000 0.610657 -0.900000
v -0.500000 -0.239344 0.950000
v -0.500000 0.760656 0.950000
v -0.600000 0.760656 0.950000
v -0.600000 -0.239344 0.950000
v -0.500000 -0.239344 0.850000
v -0.500000 0.760656 0.850000
v -0.600000 -0.239344 0.850000
v -0.600000 0.760656 0.850000
v 0.500000 0.510656 0.944140
v 0.500000 0.610656 0.944140
v -0.500000 0.610656 0.944140
v -0.500000 0.510656 0.944140
v 0.500000 0.510656 0.844140
v 0.500000 0.610656 0.844140
v -0.500000 0.510656 0.844140
v -0.500000 0.610656 0.844140
v 0.600000 -0.239343 -0.850000
v 0.600000 0.760657 -0.850000
v 0.500000 0.760657 -0.850000
v 0.500000 -0.239343 -0.850000
v 0.600000 -0.239343 -0.950000
v 0.600000 0.760657 -0.950000
v 0.500000 -0.239343 -0.950000
v 0.500000 0.760657 -0.950000
v 0.600000 -0.239344 0.950000
v 0.600000 0.760656 0.950000
v 0.500000 0.760656 0.950000
v 0.500000 -0.239344 0.950000
v 0.600000 -0.239344 0.850000
v 0.600000 0.760656 0.850000
v 0.500000 -0.239344 0.850000
v 0.500000 0.760656 0.850000
v -0.500000 -0.239343 -0.850000
v -0.500000 0.760657 -0.850000
v -0.600000 0.760657 -0.850000
v -0.600000 -0.239343 -0.850000
v -0.500000 -0.239343 -0.950000
v -0.500000 0.760657 -0.950000
v -0.600000 -0.239343 -0.950000
v -0.600000 0.760657 -0.950000
v 0.700000 0.735832 1.100000
v 0.700000 0.785832 1.100000
v -0.700000 0.785832 1.100000
v -0.700000 0.735832 1.100000
v -0.700000 0.735833 -1.100000
v -0.700000 0.785833 -1.100000
v 0.700000 0.785833 -1.100000
v 0.700000 0.735833 -1.100000
v 0.500000 0.510657 -0.849088
v 0.500000 0.610657 -0.849088
v -0.500000 0.610657 -0.849088
v -0.500000 0.510657 -0.849088
v 0.500000 0.510657 -0.949088
v 0.500000 0.610657 -0.949088
v -0.500000 0.510657 -0.949088
v -0.500000 0.610657 -0.949088
vn 0.0000 1.0000 0.0000
vn 0.0000 -1.0000 -0.0000
vn 0.0000 -0.0000 1.0000
vn 1.0000 0.0000 0.0000
vn 0.0000 0.0000 -1.0000
vn -1.0000 -0.0000 0.0000
usemtl Mat
s 1
f 2//1 6//1 8//1 3//1
f 5//2 1//2 4//2 7//2
f 9//3 10//3 11//3 12//3
f 13//4 14//4 10//4 9//4
f 15//5 16//5 14//5 13//5
f 12//6 11//6 16//6 15//6
f 10//1 14//1 16//1 11//1
f 13//2 9//2 12//2 15//2
f 25//3 26//3 27//3 28//3
f 29//4 30//4 26//4 25//4
f 31//5 32//5 30//5 29//5
f 28//6 27//6 32//6 31//6
f 26//1 30//1 32//1 27//1
f 29//2 25//2 28//2 31//2
f 33//3 34//3 35//3 36//3
f 37//4 38//4 34//4 33//4
f 39//5 40//5 38//5 37//5
f 36//6 35//6 40//6 39//6
f 34//1 38//1 40//1 35//1
f 37//2 33//2 36//2 39//2
f 41//3 42//3 43//3 44//3
f 45//4 46//4 42//4 41//4
f 47//5 48//5 46//5 45//5
f 44//6 43//6 48//6 47//6
f 42//1 46//1 48//1 43//1
f 45//2 41//2 44//2 47//2
f 49//3 50//3 51//3 52//3
f 53//5 54//5 55//5 56//5
f 50//1 55//1 54//1 51//1
f 56//2 49//2 52//2 53//2
usemtl Mat.1
f 1//3 2//3 3//3 4//3
f 5//4 6//4 2//4 1//4
f 7//5 8//5 6//5 5//5
f 4//6 3//6 8//6 7//6
f 17//3 18//3 19//3 20//3
f 21//4 22//4 18//4 17//4
f 23//5 24//5 22//5 21//5
f 20//6 19//6 24//6 23//6
f 18//1 22//1 24//1 19//1
f 21//2 17//2 20//2 23//2
f 56//4 55//4 50//4 49//4
f 52//6 51//6 54//6 53//6
f 57//3 58//3 59//3 60//3
f 61//4 62//4 58//4 57//4
f 63//5 64//5 62//5 61//5
f 60//6 59//6 64//6 63//6
f 58//1 62//1 64//1 59//1
f 61//2 57//2 60//2 63//2
